<svg xmlns="http://www.w3.org/2000/svg" viewBox="0 0 96 96"><rect x="27" y="38" width="42" height="43" rx="9" fill="#F4E9D6" stroke="#403B47" stroke-width="3"></rect><path d="M36 38c3 6 7-4 11 1 4 5 8-4 12 0 4 5 7-2 10 0" fill="#F8D7C4"></path><path d="M48 36V24" stroke="#403B47" stroke-width="2.5" stroke-linecap="round"></path><path d="M48 24c-7-7-3-15 1-19 6 6 8 14-1 19z" fill="#F3B84E" stroke="#403B47" stroke-width="2.5"></path><path d="M49 20c-3-4-1-8 1-10 3 4 3 7-1 10z" fill="#F06F55"></path><path d="M38 62c7 4 13 4 20 0" fill="none" stroke="#B8A589" stroke-width="2" stroke-linecap="round"></path></svg>
