<svg xmlns="http://www.w3.org/2000/svg" viewBox="0 0 96 96"><path d="M35 19h26M32 26h32M36 75h24" stroke="#403B47" stroke-width="3" stroke-linecap="round"></path><path d="M34 27h28l6 13-5 32H33l-5-32 6-13z" fill="#F1C65D" stroke="#403B47" stroke-width="3" stroke-linejoin="round"></path><rect x="39" y="38" width="18" height="23" rx="8" fill="#F7E6A7" stroke="#C28E37" stroke-width="2"></rect><path d="M48 30v42M33 47h30" stroke="#C28E37" stroke-width="2"></path><path d="M48 75v10M43 85h10" stroke="#403B47" stroke-width="3" stroke-linecap="round"></path><path d="M20 32l2 5 5 2-5 2-2 5-2-5-5-2 5-2 2-5zM77 57l2 4 4 2-4 2-2 4-2-4-4-2 4-2 2-4z" fill="#E97887"></path></svg>
